<mxfile host="Electron" modified="2024-08-25T19:42:48.949Z" agent="Mozilla/5.0 (Macintosh; Intel Mac OS X 10_15_7) AppleWebKit/537.36 (KHTML, like Gecko) draw.io/22.1.18 Chrome/120.0.6099.199 Electron/28.1.2 Safari/537.36" etag="qjIQMeWH8vswuKEPtNsC" version="22.1.18" type="device">
  <diagram name="Page-1" id="7U1VYPa56xiURwjZ3tfv">
    <mxGraphModel dx="1356" dy="969" grid="0" gridSize="10" guides="1" tooltips="1" connect="1" arrows="1" fold="1" page="0" pageScale="1" pageWidth="850" pageHeight="1100" math="0" shadow="0">
      <root>
        <mxCell id="0" />
        <mxCell id="1" parent="0" />
        <mxCell id="cM6TXBeVg3W-jRQIAjTv-25" value="" style="rounded=1;whiteSpace=wrap;html=1;arcSize=20;fillColor=none;strokeColor=#CD2264;" vertex="1" parent="1">
          <mxGeometry x="95" y="431" width="473" height="37" as="geometry" />
        </mxCell>
        <mxCell id="cM6TXBeVg3W-jRQIAjTv-1" value="AWS Account" style="points=[[0,0],[0.25,0],[0.5,0],[0.75,0],[1,0],[1,0.25],[1,0.5],[1,0.75],[1,1],[0.75,1],[0.5,1],[0.25,1],[0,1],[0,0.75],[0,0.5],[0,0.25]];outlineConnect=0;gradientColor=none;html=1;whiteSpace=wrap;fontSize=12;fontStyle=0;container=1;pointerEvents=0;collapsible=0;recursiveResize=0;shape=mxgraph.aws4.group;grIcon=mxgraph.aws4.group_account;strokeColor=#CD2264;fillColor=none;verticalAlign=top;align=left;spacingLeft=30;fontColor=#CD2264;dashed=0;" vertex="1" parent="1">
          <mxGeometry x="95" y="229" width="472" height="196" as="geometry" />
        </mxCell>
        <mxCell id="cM6TXBeVg3W-jRQIAjTv-5" style="edgeStyle=orthogonalEdgeStyle;rounded=0;orthogonalLoop=1;jettySize=auto;html=1;startArrow=classic;startFill=1;dashed=1;dashPattern=1 1;fillColor=#f8cecc;strokeColor=#b85450;" edge="1" parent="cM6TXBeVg3W-jRQIAjTv-1" source="cM6TXBeVg3W-jRQIAjTv-3" target="cM6TXBeVg3W-jRQIAjTv-4">
          <mxGeometry relative="1" as="geometry" />
        </mxCell>
        <mxCell id="cM6TXBeVg3W-jRQIAjTv-24" value="AWS SDK" style="edgeLabel;html=1;align=center;verticalAlign=middle;resizable=0;points=[];fontSize=10;fontColor=#B85450;" vertex="1" connectable="0" parent="cM6TXBeVg3W-jRQIAjTv-5">
          <mxGeometry x="0.067" y="2" relative="1" as="geometry">
            <mxPoint x="-2" y="1" as="offset" />
          </mxGeometry>
        </mxCell>
        <mxCell id="cM6TXBeVg3W-jRQIAjTv-3" value="Elastic Beanstalk" style="sketch=0;points=[[0,0,0],[0.25,0,0],[0.5,0,0],[0.75,0,0],[1,0,0],[0,1,0],[0.25,1,0],[0.5,1,0],[0.75,1,0],[1,1,0],[0,0.25,0],[0,0.5,0],[0,0.75,0],[1,0.25,0],[1,0.5,0],[1,0.75,0]];outlineConnect=0;fontColor=#232F3E;fillColor=#ED7100;strokeColor=#ffffff;dashed=0;verticalLabelPosition=bottom;verticalAlign=top;align=center;html=1;fontSize=12;fontStyle=0;aspect=fixed;shape=mxgraph.aws4.resourceIcon;resIcon=mxgraph.aws4.elastic_beanstalk;" vertex="1" parent="cM6TXBeVg3W-jRQIAjTv-1">
          <mxGeometry x="99" y="67" width="78" height="78" as="geometry" />
        </mxCell>
        <mxCell id="cM6TXBeVg3W-jRQIAjTv-4" value="DynamoDB" style="sketch=0;points=[[0,0,0],[0.25,0,0],[0.5,0,0],[0.75,0,0],[1,0,0],[0,1,0],[0.25,1,0],[0.5,1,0],[0.75,1,0],[1,1,0],[0,0.25,0],[0,0.5,0],[0,0.75,0],[1,0.25,0],[1,0.5,0],[1,0.75,0]];outlineConnect=0;fontColor=#232F3E;fillColor=#C925D1;strokeColor=#ffffff;dashed=0;verticalLabelPosition=bottom;verticalAlign=top;align=center;html=1;fontSize=12;fontStyle=0;aspect=fixed;shape=mxgraph.aws4.resourceIcon;resIcon=mxgraph.aws4.dynamodb;" vertex="1" parent="cM6TXBeVg3W-jRQIAjTv-1">
          <mxGeometry x="285" y="67" width="78" height="78" as="geometry" />
        </mxCell>
        <mxCell id="cM6TXBeVg3W-jRQIAjTv-16" value="" style="shape=image;verticalLabelPosition=bottom;labelBackgroundColor=default;verticalAlign=top;aspect=fixed;imageAspect=0;image=https://repository-images.githubusercontent.com/232603801/d5529d80-f0f0-11ea-8938-b8698a47cbed;" vertex="1" parent="cM6TXBeVg3W-jRQIAjTv-1">
          <mxGeometry x="365" y="6" width="103" height="51.5" as="geometry" />
        </mxCell>
        <mxCell id="cM6TXBeVg3W-jRQIAjTv-8" style="edgeStyle=orthogonalEdgeStyle;rounded=0;orthogonalLoop=1;jettySize=auto;html=1;fillColor=#1ba1e2;strokeColor=#006EAF;" edge="1" parent="1" source="cM6TXBeVg3W-jRQIAjTv-7" target="cM6TXBeVg3W-jRQIAjTv-3">
          <mxGeometry relative="1" as="geometry" />
        </mxCell>
        <mxCell id="cM6TXBeVg3W-jRQIAjTv-7" value="Github Actions" style="shape=image;verticalLabelPosition=bottom;labelBackgroundColor=default;verticalAlign=top;aspect=fixed;imageAspect=0;image=https://encrypted-tbn0.gstatic.com/images?q=tbn:ANd9GcR9nNZVxrqmSMQnNMDKHdTkNFOxPkYUA0HZUA&amp;s;" vertex="1" parent="1">
          <mxGeometry x="-9" y="299.5" width="71" height="71" as="geometry" />
        </mxCell>
        <mxCell id="cM6TXBeVg3W-jRQIAjTv-10" style="edgeStyle=orthogonalEdgeStyle;rounded=0;orthogonalLoop=1;jettySize=auto;html=1;fillColor=#1ba1e2;strokeColor=#006EAF;" edge="1" parent="1" source="cM6TXBeVg3W-jRQIAjTv-9" target="cM6TXBeVg3W-jRQIAjTv-7">
          <mxGeometry relative="1" as="geometry" />
        </mxCell>
        <mxCell id="cM6TXBeVg3W-jRQIAjTv-9" value="Repository" style="verticalLabelPosition=bottom;html=1;verticalAlign=top;align=center;strokeColor=none;fillColor=#00BEF2;shape=mxgraph.azure.github_code;pointerEvents=1;" vertex="1" parent="1">
          <mxGeometry x="-157" y="296" width="78" height="78" as="geometry" />
        </mxCell>
        <mxCell id="cM6TXBeVg3W-jRQIAjTv-13" style="edgeStyle=orthogonalEdgeStyle;rounded=0;orthogonalLoop=1;jettySize=auto;html=1;dashed=1;" edge="1" parent="1" source="cM6TXBeVg3W-jRQIAjTv-17" target="cM6TXBeVg3W-jRQIAjTv-3">
          <mxGeometry relative="1" as="geometry">
            <mxPoint x="233" y="102" as="sourcePoint" />
          </mxGeometry>
        </mxCell>
        <mxCell id="cM6TXBeVg3W-jRQIAjTv-14" value="{ REST }&lt;br&gt;&lt;font style=&quot;font-size: 11px;&quot;&gt;Authentication: Bearer Token&lt;/font&gt;" style="edgeLabel;html=1;align=center;verticalAlign=middle;resizable=0;points=[];fontSize=15;" vertex="1" connectable="0" parent="cM6TXBeVg3W-jRQIAjTv-13">
          <mxGeometry x="-0.2" relative="1" as="geometry">
            <mxPoint y="-4" as="offset" />
          </mxGeometry>
        </mxCell>
        <mxCell id="cM6TXBeVg3W-jRQIAjTv-17" value="Actor" style="shape=umlActor;verticalLabelPosition=bottom;verticalAlign=top;html=1;outlineConnect=0;" vertex="1" parent="1">
          <mxGeometry x="225" y="80" width="16" height="35" as="geometry" />
        </mxCell>
        <mxCell id="cM6TXBeVg3W-jRQIAjTv-19" value="" style="shape=image;verticalLabelPosition=bottom;labelBackgroundColor=default;verticalAlign=top;aspect=fixed;imageAspect=0;image=https://miro.medium.com/v2/resize:fit:1400/1*R36nHDnQ9i7vizbSJqTb1g.png;" vertex="1" parent="1">
          <mxGeometry x="384" y="437.95000000000005" width="82.5" height="23.1" as="geometry" />
        </mxCell>
        <mxCell id="cM6TXBeVg3W-jRQIAjTv-20" value="" style="shape=image;verticalLabelPosition=bottom;labelBackgroundColor=default;verticalAlign=top;aspect=fixed;imageAspect=0;image=https://miro.medium.com/v2/resize:fit:1400/1*POcSb9jzwC8iNDEGQ0xhOQ.png;" vertex="1" parent="1">
          <mxGeometry x="273" y="436.1700000000001" width="75.25" height="26.66" as="geometry" />
        </mxCell>
        <mxCell id="cM6TXBeVg3W-jRQIAjTv-21" value="" style="shape=image;verticalLabelPosition=bottom;labelBackgroundColor=default;verticalAlign=top;aspect=fixed;imageAspect=0;image=https://miro.medium.com/v2/resize:fit:788/1*XkmnsJ6Joa6EDFVGUw0tfA.png;" vertex="1" parent="1">
          <mxGeometry x="484" y="440.24000000000007" width="71" height="20.81" as="geometry" />
        </mxCell>
        <mxCell id="cM6TXBeVg3W-jRQIAjTv-22" value="" style="shape=image;verticalLabelPosition=bottom;labelBackgroundColor=default;verticalAlign=top;aspect=fixed;imageAspect=0;image=https://upload.wikimedia.org/wikipedia/commons/thumb/4/4c/Typescript_logo_2020.svg/2048px-Typescript_logo_2020.svg.png;" vertex="1" parent="1">
          <mxGeometry x="216.78" y="436.16999999999996" width="24.22" height="24.22" as="geometry" />
        </mxCell>
        <mxCell id="cM6TXBeVg3W-jRQIAjTv-23" value="" style="shape=image;verticalLabelPosition=bottom;labelBackgroundColor=default;verticalAlign=top;aspect=fixed;imageAspect=0;image=data:image/png,iVBORw0KGgoAAAANSUhEUgAAAbEAAAB0CAMAAAA8XPwwAAAAt1BMVEX///9AQTeDzSk3OC2QkIx4yQA6OzAoKRqBzCN+yxotLiH4/PR8yw90dW+W1FG54ZLZ2djX7sHz+u2K0DfF56bi89N6e3UzNCglJhZCQzmWlpKy34b8/vrw+ejc8Mq24I329vZNTkXZ78Wc1l/S7LrAwL6j2WzE5qTu7u1WV0+oqKVjZF3k5OPp9t5PUEeO0UTV1dTIyMar3Hqysq/L6a+hoZ1pamOZ1ViEhH+m2nGt3X8fIQ2/5JvnyNuGAAAMZ0lEQVR4nO2da2OiOhCGBTdILLXbqsW21qq1ai/W1tqb+v9/13ILEEhCLuwq3bwfzjlV5IQ8MDOZJEOt9lN1Zz2+7LsNWiLaGlbj42nfrdDiV8MwDKv3Ndx3O7R45RMzjHrjfd8N0eJUSMwwXOtu303R4hIiZhjNex2CVEEJMR2CVEMpYn4I8mu47wZpFQgj5oUgzYd9t0iLrQwxLwQxdAhy0MoRM4zG+b4bpcUQgZjRe913q7ToIhGrX+67VVp0EYn92nertOjSxKomTaxq0sSqJk2satLEqiZNrGrSxKomTaxq0sSqJk2satLEqiZNrGrSxKomTaxq0sSqJk2satLEqiZNrGrSxKomTaxq0sSqJk2satLEqiZNrGrSxKomTaxq+l+Jvdz9lT3E/eu/cVZMh05sPW1NZ/2yz/ry3HAb97/LPu3RBgDYKfustdr84TLZblQasd8f7kXp+zsn0LFt23G4emHaMtvL3Qx4/7kGrAPn5w3L8PcQnw/LaGSsmQNN03Tag1LPWqtd9tx64xHtUS+J2PC853WCe1HqzrPu0jFDcfbCjXfUzj/0c8k46jLgFVxomWVMxu2otTa4LdM2vtVdw0iVySmH2HujHv60xHIFZ9/ANpH4euFq7BHrrGrXmxb1mDvLTV1qaXuIrz+x1l6VZchf7psxlnCPehnE7oykE0orV7ADMLh6CJyoF24KeyEgNmjVdl3aM/Y76YBIzccS7rH+JsUraLWzVj+rZ7+Pe1aqrb4Nm2cvQJzY0yN+jrr7pt7Uie1EvGa1NYzYwaJeCInNPF5t4veh7c6ohKpcHQeaWZXhzt5zzW0+5y9AkNjwK98JzZFi5LxYhresDVZH3p/9m+gOdtpd5u98Yifjs/YVmVhsu7PX21AKmQbIgeFSdmd3dZfYXDViD01SJ1iN47l8S49WiFdrEX10fYs+uj1j/HLmAV0PatNF7Tv/Je7AcCmETJgDyzJTcGd5+10GsdcLWidYPend77PIgTn2aepTdCN77kzqrEUd0JBzZ/0rKi8ld0a038rEnh5JYQuS60pFYacmcmC7zDdrh9ed5UWy3bl7TMKdkRxYGe6MZr+ViBV3QlM8qbBoYQ4MV3w/O0u2O8vpgasD6k3BkIniwJTdGct+yxN7IzowXKJJBRQjpxwYrsSdTVnuLKNXg7cD3JGAO0ON4WAm5M6ysXc5xOgOLHMmkaQCMjGOPaEeg25rCE44z8q23VlxZwAKHBguAUPOYb8liD198HcCdxQ2btMcGC4ergodYPW4nPi60IHhKhqXIPHZ75zYxIa/xDqBK6mAYmQbfOcdGK7Edi7JtjPdARy2O3f1xRkALgeGi8ud8ZqufJtZxN5c0U4ojsKQifEg8NyKC068sh1QkAHgdmBZZgXjEjH7jYlB7GUk7hYLo7A4bucydL7G1DFAormA7c6IlQEQcmC4mO5MzoGhDqYRmx83JM/Kum1vQdT7vMGEr3icTcvSP23lO8BnRkF2DcUcGC7wSbseGfudiEbsQeEuMHq0Ops3TmgzRAL2WpLLgoSElK9jFWBeH1Ca+6kCzLvBKHOzl9L2IGwtmdjLVumsTXLe6ih4woQHxbV4uA3IHl2prb6IZ+0DJWCmfUs87bCn1lYKsS+V59aTRTzrqf+I2XLpt1PTQ0ZJ3am11aAQO1IlRjbiv2Wig5QoxBTtjOESz9rxiDm8EUdWXe/HkOz+1NpqaGIGlZjnGJxT4leJzrqD8XjQzXk6BrELtcZqYoYIsXWnM0tS3pMpBMDxBABo7bBRszyxeuGw8ucTs+oFRLmJnQEIHTP6Y+Y4qfGPDcFnKtKQJVZ3398uC+LpAyJWrxcks6WINe/fCyYNBYh5lxbO+/eXuXyQDZJQQ45YlDtkj1kvDoZY0Fx2wlGCmFv35y/fXNatIEOsjWYxfasIYfi0gThQkSLW+ECjY1Ze6GCIRdMJzPtLmFiyRuCScVoJYuHo2rG/d+vJZD3btMNRM0DpRAli+GQCPfV4IMRSzWVMnAkSs3qpLBwjkSVOLByvwlTs3136Dx28Qn+KErNyGc6HJrm9B0Es8+Ij6uS0GLHmM54yfHmm/e+JZ2URG/uPmIMvlFj6T5kT/SFKzHoc5g4c3hOv6wCIESY93snPgwgxK5lNmiBb9Ua8EyiZOhaxmf9A2fjxC7/PQJTTEiXWzPaArznRme2fmHVPmFicEymIELtAfTBogzjNOSQc6Rqk3mIT28E4BEm0TGWmBIlZ5Jvmg3hhxEP/JbEmeWGTwLp7EjH0Up5wli9e6vWVPZS+fpFFrBNYxUymd+aNpkH0A0FilAs7rxKxYSnE4mXWaG48SywJqHNiERsEoSLcUVcHaGKSxG6S64CBEcOJuaxZeGZ0j2aandamM17k15BpYrLEkmk+O9gHlCZWsGSASWyNOsj2xtAAmLc3E8xGamLlEytclsPOeWT2Zdket/ZJksLXxEonVrz0jU3M30iWmae3IdigIzWxkonx7FktIOYNo1eeH3OgnXrYINqCqYmVSsziWsJdSMzT9bhzM235s2RRLhiuwi80MUliV8mUSNjTXh9YvXOuXX88xCL1F5MrlAsOfZkmJkks2afomMEY+mHbfObcisTMBHvKHt8NE4thdlgTkySG9jlAgPJUr9zbehjEJsBTbtFvP/g/hR//bGLkoE2RmHWMvu04DthIbPtlEFs7xAV+/kMGwzXsP5oY+bXcd6Q0u0gm2I1P2z8p3GpCEoNYMNkCcneBv0jx7z9jI+Kh/3S2hZArevogHik0P+ZaalVnGMT8f6OnKVEw3RL9gkFsVH1iuR0b1I1ggnPQEvudU2JFHq1glTbuya5NO3nyfjixzJwHfSOY6DoP3kCeKBaxbrgm3zwZXAeEvPA+LFaFlg38eGL+mqcoLcvaCCa+lkqhiBpzPBYO9Pxsojd4Dv8ZfIAWM/4HxCIbxt4IJrNeUdqdsUfQK9L2OmhyrKX6OcR8G3bJ3rgntyZY0p0V5DxObQdnlk4E/yfE/PXW7O8l193LubPCLNXkNjCJ0LYhDCZb+FZx/yhiRZLeKSHjzgJiY+yjbF6x313vNt/T6ffV7BRf9KGJKRKTcWd+YgNusI9omeC8/OVxkLx5nUiMvDyIuJWRTEx5jyZ5I/RedyOJurMggodm+injJbb4DNZakTefjQht25Kb9kra00omFi5wlZdDNghPqrtqybfiO191DNFqVG2/D7ACJddcxFAlFkj+epRv2JZW+PKSUJeAQmwhXRsiAEa7KnJpUm5tKTP9RRELkpg7C4fJ6QIlE4dq8BOh8hBgTP4+R4xVQZFQfZFCrHYmV38lvERq/Yu5VJ0U1N89miviLxIi5M4GceHEcNKrH6R6V8zfJCVYaFuoM8SK6mPlNiHQiEnVOAp5Meuv8hTTI4pt0/gryQm5s6QOcKe7WAcrOpjFP5MqVivq/A5GjKcScKYKJZ2YeB2x8NoK6l+I1vvi7WjuWk9C7iwunOgNuMIRc36SJVZhGcZAo3RTuMqT4pVen1mHCpc64qrXJ1JTLxKXMeOuxyPkzjKmxqHXm4rL9ZnMCgUJMf4SwGl3xiQmWE6MuyamYO0zvrVPYu5MIAmyTm1RB1PaUQPOMowxMbEy24k7KyAm4M6E6s4K1KcSyTFxP76uSNDYn5kAwiAVRaORcmBFZRifgwZkNjlyCLmzQmI8dZ0DWyBW25n7eRAc+L5yRaPWVvBVBd3d6nt1M6GYkKQMI8uBRRoZkvW156E74yCWf/lHXhL107nqLMbTZvwqroxplfjaHV+cDizSs3QN+8CdWTzEkuKcVIMo9Y6CQndmNWReJ1AUjWb3Rwtq8YmbRm4HFuluq/BqrTtryzugRCNDIq9P2feAMN2Z/Cs7PHdGZaa4YGfghWJpB5DUTS90YP9cKPuSd2CUdAyPGO5M6VGg1RWoN5VexXYGQJRsDLMEQg7s3+uINFMOnZnaWSnvLVF+9dQb4QU+6u+HQu+WCCvRroUKpu9DqL0pg7hRtwWE8h2cxd3ZypbJKSfgOI1eQOaYnaWYA9uPUHvNUm1B9v0tJcVy+DIfxYAj0UnoHmzIWwh/z9rF7owvmOXSPJ05E3pJCVuJyVVdIZxWal6D520Ee9dRtJYSKDowXHHfCr8IiK3Q5Cq+LC8nFNEfrgPDtVgCp/xgNnjXX2nvJ0303mhsSz+pN2r2+uCgHRiuxVisBjyfHkbGV6nJiEh/45xeHwzE66p7+gOoRjlfMafGZQAAAABJRU5ErkJggg==;" vertex="1" parent="1">
          <mxGeometry x="114.00000000000001" y="437.36" width="81.48" height="21.83" as="geometry" />
        </mxCell>
        <mxCell id="cM6TXBeVg3W-jRQIAjTv-35" value="" style="shape=image;verticalLabelPosition=bottom;labelBackgroundColor=default;verticalAlign=top;aspect=fixed;imageAspect=0;image=data:image/jpeg,/9j/4AAQSkZJRgABAQEASABIAAD/2wBDAAYEBQYFBAYGBQYHBwYIChAKCgkJChQODwwQFxQYGBcUFhYaHSUfGhsjHBYWICwgIyYnKSopGR8tMC0oMCUoKSj/2wBDAQcHBwoIChMKChMoGhYaKCgoKCgoKCgoKCgoKCgoKCgoKCgoKCgoKCgoKCgoKCgoKCgoKCgoKCgoKCgoKCgoKCj/wgARCAERAuADASIAAhEBAxEB/8QAHAABAAMBAQEBAQAAAAAAAAAAAAUGBwMEAgEI/8QAGwEBAAIDAQEAAAAAAAAAAAAAAAMEAQIFBgf/2gAMAwEAAhADEAAAAdUAAAAAAAAAAAAAAAAAAAAAAAAAAAAAAAAAAAAAAAAAAAAAAAAAAAAAAAAAAAAAAAAAAAAAAAAAAAAAAAAAAAAAAAAAAAAAfmZx29NZIhv62yQa2yQa2yQa2yQa2yQa2yQa2yQa2yQa2yQa2yQa2yQa2yQa2yQa2yQa2yQa2yQa2yQa2yQa2yQa2yQa2yQa2yQa2yQa2yQa2yQa2yQa2yQa2yQa2yQa2yQa2yQa2yT7NYRslZ44Z1AAAAAAAAAA8mJ7ZidH0wVO+AP0/HX7zr53q+mPG935nHierljbk/fzGwAAAAAAAAAAAAAAAAAAAAAAAAGj3Cn3DqeICWiAAKZpPc/z5y3Waz1avqPqZT215pPpVswmx2eNqj5+rvmwAPJie2YnR9MP2p35W/yUh0fH+b0fqflhnAAAHPxyDG9Qz3caPV7lAFH0wAAAAAAAAAAAAAAAAAAAAAAGj3Cn3DqeICWj5PLI5rD0NOE3PUC71+OzE0jvbaHqofvqX5a4uY/Oos65LCbrmsHS997xPbJucFnjgeTE9sxOj6ZJRs5X7GtjreBAAKDbY7ciJKgACFmvDrNiw5HvxJ50jF28klSqO1m1nqb1eXWUssXtDHLP7doqWucBjeLJbSeJXbxSVKs6fMV35Wf3S06Uk+OljxLokq0tZ61HZ+Ux2zrApSwZ0pa6eDOtafti0sVxdElWlrZU47IazAAaPcKfcOp4gJaIBxx0sGf/AD9Y3kdAz+/c72F58Hv83R8fmOmwtkh6CgX/AD9ikbbie4w9LqLvmwPJie2YnR9MnYKdr9fWh1vBAAY/FykRyffXi9YbIT8vZ3k9d7ywZw8nr8mN8THH+hdNtxDY7nn6pJ+uqbQR2k43sms2YxEvEVu1q1Qt9QtcK5Rknwkpw15q/tMz2fEtkivU2Y7VTaOLvWebLrLCwNJ5x29bolfnjTKVasgloazBcJXOkXIR8hiSIuFPu20NLutbsm0dAtOf6BDf+IexRklWIqVpq1XuBFdAA0e4U+4dTxAS0QM2z6egQD32Kp+7nev2X0Yk3r7b8YqY2LNYfpHdmtZhpm55wJueB5MT2zE6Ppk5BzNfr68Ot4IADH4i02znevp2hyC554JaIDyevx43xQcf6F9e3rq9jlZvoMbNWeLQ7lnsnFeioHao1npR9ByFrqVfn/2WlSNLgp1jJOcto9fr5zocROWORRNByawR3Kj49qitZ8wmNDz7WXVPL5Mhscncch0qk6T+6Qj5DG8Raqredoc1u3nnmKXNVuyazeKAvXh20osTpWa1e0EV4ADR7bUrb0/E1yWi5QkBNQxGDnIMAduLWWS/bpZafoMmaZ7dbGaaVO/VnjBPywAPJie2YnR9MkY76q9zdXl9XX+fBnAAAAACIl6dHazkcr3btxZxN+HxMxBrN7/XCtoenM1lku0O2imI3ibO/Bjeb8HjZiDWb3eyFbQ/f3xYllIsa+vvGs49f34WHq90OziZ8nhMJGOYkmEO2il4g1kDG4AGj3Cn3DqeICWi5dc2KdHyAj0gI9IC0alg2sFhAAAAB5MT2zE6Ppgqd+zaRiP1Y5O6sa9k/L1llbOmqMu/DUmV/JqzJvnG2tse8OJNWy/wq/XCHoAAAAAAAAAAAAAAAAH38MAyAAAABo9wp9w6niAlojx429gzrlcPrNdOtw59AAAAAADyYnueP0/RRjqp+i5Oo5Oo5Oo5Oo5Oo5Oo5Oo5Oo5Oo5Oo5Oo5Oo5Oo5Oo5Oo5Oo5Oo5Oo5Oo5Oo5Oo5Oo5Oo5Oo5OpiyQfbhe8x40h5KPpuTqbcnUcnUcnUcnX7Yv9wg5zqeHCSp4c9075iv/AH+ktB4/ZmkVzSxLTAAAAAAAAAAAAAAAAAAAAAAAAAAAAAAAAAzSgXqilv1n+d7ga0/P0AAAAAAAAQk21kDaMAAAAAAAAAAAAAAAAAAAAAAAAAAAAAAAADLKRcqaC3HTV8/txJgAAAAAAAAAAAAAAAAAAAAAAAAAAAAAAAAAAAAAAAAAAyOZucgZH77Rkpv7n0AAAAAAAAAAAAAAAAAAAAAAAAAAAAAAAAAAAAAAAAAAAAPzNNMHk9YAAAAAAAAAAAAAAAAAAAAAAAAAAAAAAAAAAAAAAAAAAAAAAAAAAAAAAAAAAAAAAAAAAAAAAAAAAAAAAAAAAAAAAAAAAAAAAAAAAAAAAAAAAAAAAAAAAAAAAAAAAAAAAAAAAAAAAAAAAAAAAAAAAAAAAAAAf//EADEQAAEDAwIFAwMDBAMAAAAAAAQAAgMBBRUGExAUIDQ1ERIwIVBgIiMzJTEyQDaAkP/aAAgBAQABBQL/ALnVr7aF3kh8mVNWVNWVNWVNWVNWVNWVNWVNWVNWVNWVNWVNWVNWVNWVNWVNWVNWVNWVNWVNWVNWVNWVNWVNWVNWVNWVNWVNWVNWVNWVNWVNWVNWVNWVNWVNWVNWVNWVNWVNWVNWVNWVNWVNWVNWVNWVNWVNWVNWVNWVNWVNWVNWVNWVNWVNWVNWVNWVNWVNWVNWVNWVNWVNWVNTLuY11vKoYN/rl9r+B6Z7T4q1pShl7ijUt3LkXPlesV3LjQd6ilVK+tOovter0qvY9bMq5eZcqQuUIXKkLl5qKsb6fddM9p8FbhNmXuoxl0uTy3dNquThXNdR7ekvteNvBkNkHtAsVGjwsVKUp8NWNqnhjPRdkhe2WN0Un3DTPacSp2jQAGxmx8XDTZ/URf1a2rnMtJjqYUtYQtVshafaTGUrStK6dL6i+14gD0GF+bUo/wCn7hpntOMjGyMfBPbLhwnmZBFDfA5ZCJKzT6ZipWVVr6U46jiowsSXYJ6S+14W5nvO+e8s99t+4aZ7Tqr9FqUyGaJv91pj/BH9iBdJhUNNQiFan/zQtfUboL7XhZfJ9U11lFuIZkJbes6nqFxDBnLVLBJ6TWMllJI3xPgssk0BUNR50FaXlDnC1EnDtDyh8BKq2GZGATicAwJy1SwP9J7ISykjHRupStaj2UmSjrBJ6FgzioOCpJGAlWAlU9lKjpWlaVtwLjXXC2vCjt4bjZcBKsBKiLMVE1A2p5cGAlWAlRFlkhg69M9p0zSshiul0lNcqf3Wl6/pRTKyjAWmEbjqev7tKetYm+yLoL7XhZPJ9V28ixzmOAvdaKKRkrOkvtOEbffJDG2GKW/OpKLe4Ja3gnmTbb4+7eRVh8bqHyFi8Zc7rIIVBfXVllY2WOGLcKa1sUbr+/3i3keat0J5oyygUHhuFziDrHf6+6S4DVBs1fW7GzVHFz8ittyYatSDNpTTH8upu1013l0KcGNnpkAVQsbUMTYztO+PulzeGRn5ERenzQdeme06dVFV9/FlfVtoMoGQw4V9OZgXMQrmh1JcRGUupfOFWUffO6S+14WTyfVdvI8App4phXSuh6C+04Nr7XAlxlxF2oYhxVkmjpWnpW2+Pu3kVYfG6h8hYvGHWphZEFkhjlu5jxoIn1jlEKjKiKtA09S7LPFQNnvMld7InvrI/hY/J3fxq06NJzGpH0oHpj+XU3a6a7w8WhkGAjTI2AinkOKJ0748+2MMmwESuttYFB16Z7TpvlfW68WO9tepjXPdaw6Bj9Jfa8LJ5Pqu3kUDaZiEIHCK3pL7ThSnrWaKcOYe8FRK3ltMH1JE1hNrd7rde46suKs0dY7dqB3rcbF4y8Hkjmx3gxronUIGKH9h0jJw5h7yVEgiWlj3mjRrrX0kjLgeNOtp+1Y/Jvc1raEj1rK72R3Ax5k+mP5dTdrprvL1PIOHljVZjnmR6kga1+nfH3m4TilZktFnzlM69M9o91GMzQiDMiLbwvXlOhj/AGqn1pxFFmJdbLawOnUX2vCz/S5dRQUxd0AtUI3wG/QPhbJYoTP2C4nWUR1YIohYb0XQoqxXBsKJGhKZDaRInmlxiRTSOmlsXjC7XAVMyyCtdPNENCGXFlXNgLirZRKujZELBdiqFl2W5tawgaEpjLOG1xsoo41m9Mtd/Gq0l82JfQuXn0x/LqbttNd4YMwuHBCoUaISK/mMIl0948y3QFyYQRTWYVkPXpntHto9mFEQYkIjeF68p06UbR0UtpEkWDFUVpEjTW0bTrL7Xhbnew757s72W7jFK+J1LobSk5U8/GAwiCjroY6j3ue5QnEwx5MxZIxSSPlcoppIa0uptKTkzT8YC54E66GOo51X1ikfDJIeTKxDkSj1mNImYORKPWcuchsE8o7smYsmYpi55qKA0iBmTMWTMTriW6nXpntOiWRsUZ89CTOnTBbIZvjL7XhSvpUaWk4/zakm9o/3DTPadF/lKKk5IpckUuSKXJFLkilyRS5MpWYmaYf4i+142i5cpWGeKdvyFXIYehhLyp/uGme067sacKfljlp2YkiP5S+16KVrSrDimKl2NosyYsyYs0Ws0WsyYswYssasqaq3Euqkmlk+y1bWjfl0z2nROVDBXgcFAayPTwzXxsbGz5S+1+6tmijthQ7h3/JpntOJxHKjBDS3QqlPSnDmYd/5pG+9hYUw0m29bb1tvW29bb1tvW29bb1tvW29bb1tvW29bb1tvW29bb1tvW29bb1tvW29bb1tvW29bb1tvW29bb1tvW29bb1tvW29bb1tvW29bb1tvW29bb1tvW29bb1tvW29bb1tvW29bb1tvW29XKnpbgC2UjJFkgk23rbett623rbett623rbett623psMj3WcWognFzaPbGxsbeLv+Rfgmra/vKyXWojm1o6n+njoue/BNWd1wsl2qJWlaVp+L6r77jY7tytaVpWn4tqqv9R4W6zVNHbptqt4nJw/i2pv1XS0WNalG2DtKk+2b8YoHDza1CNzFuFmqORG6j2fjNaetG6dkcQJBQYf/wAR/wD/xAA4EQABAwEGAwQIBwADAQAAAAABAAIDBAUREhVRgSEx8BATIDIUIiM0QXGRsTAzNUBCUmFQYICh/9oACAEDAQE/Af8ArtJRSVZIZ8FkU+o62WRT6jrZZFPqOtlkU+o62WRT6jrZZFPqOtlkU+o62WRT6jrZZFPqOtlkU+o62WRT6jrZZFPqOtlkU+o62WRT6jrZZFPqOtlkU+o62WRT6jrZZFPqOtlkU+o62WRT6jrZZFPqOtlkU+o62WRT6jrZZFPqOtlkU+o62WRT6jrZZFPqOtlkU+o62WRT6jrZZFPqOtlkU+o62WRT6jrZZFPqOtk9hjcWO5j8SwfI/wAGILvGarvWaoPaeR/d2l70/wAEFO+e/D8BeqKifVuuHJQWbTwjy3/NOpYXC4sH0VbYwux0/wBPBYPkf2VtpyzPIjNzUXE8/C2RzfKVZdoyGQQym+/9zaXvT+ykp4qhjmX3P+HZTVLoMVw5i5C6z6S+7l90bbqDyAWd1P8Ais+1H1EndyBWzTiKbGP5dtg+R6qThhef8PgmoZYWh5HA+Cndhlaf9HY+RsYxPNwTbSpXG7GpamKEBzzwKa4OGIJlVE95iaeITrRpmEtc7ioq2CU4WO4qSRsYxPNwTbSpnG4PV/xTrRpmm4vQmYWd4DwWZ0v91FURzC+M3o1UQk7m/wBZS1sELsD3XFNtGmebg9SzMhbikNwWZ0v91DURzi+M3+C0ven+CM3OBKtf3V233URueCVaVRTzO9i3dWR703f7K3j6rB8+2wfI9Vf5D/kfBT/kt+QVZY8cnrxeqf8A4nNwm7sj847Lda8taRyUYs6duHynrZWxG2KnjY3kFTfks+QVF+oyb/dNMArJPSOXH7qobBPM1tGrda/1D/FMbZ1QMPlPWytaQwxspo+Sisenay54vK9BZSU8uE8wVZFHDPEXSNv4prG09oBkHJSfqg6+CtEsFcO85cFWuo3tAph6ytBjo6BrX8+Cp32cIx3o9bdUQg7vFTjgfBaXvT/DRTMrqbu38+RRsGP4PWQs/uqSzYqR2MG8q06r0ma9vIdtg+R6qvyH/I+B1oxU0LQeJuHBVdoS1PA8Bp2xecdldXupXgFt7VXT0kzfYtucqillfQMB8zVT2zGyINeDeFZMb5Zn1LhwKZLDFWSGcXjj91XTU85aKZvFVNe+lLWyNvF3H5qumpZgO4bc5VdFK6mjf/Jo6+iityPB7QG9MrDVU0ri27gVZ9mirjLi65WSGQ1DopB6yk/VB18FaDmMrw6TlwVdU0ckeGFvrfK5VLXts1ok5qnqqFsQEjOPyVDUQzNIgFwHgtG70t9+qn9Dwexvv8EMz4XY2G4qC3W3e1b9E626ccr1WWpJUjAODfBYPkentxtLdU5pabj46GPvKhjf97CAeBTaeJpva0fTsdTxON5aPouSNPETeWj6JkMbPK25EA8CmwRMN7WgbdjqeJxxFov+Swgi5Mjazg0XIxRl2It4rumYsd3FOgjeb3NBTYImm8NH0TmNeLnC9ejQ/wBB9EyNjPILvBaXvT/xLB8j+yssmOodjBuKdYU3wcFklRqFklR/iyOo1CyKfUdbJtgyfyeqOzo6TiOJ/c2l70/sa0uNzR+FYUrRiYTxWILEFiCxBYgsQWILEFiCxBYgsQWILEFiCxBYgsQWILEFiCxBYgsQWILEFHaJpqp4d5bymyNeMTSsQWILEFiCxDVVz2yVD3N5dlNWejRuDB65+PZR0wqMd55C/wD46OV8d+A8/wDw3//EACsRAAIBAQcEAgMAAwEAAAAAAAECAAMEEBESFCExEyAyQSJRMDNAQlBggP/aAAgBAgEBPwH/AJ2pUFPmapZqlmqWapZqlmqWapZqlmqWapZqlmqWapZqlmqWapZqlmqWapZqlmqWapZqlmqWapZqlmqWapZqlmqWapZqlmqWA4jEfktfI7MJgZlMwP8AXR8B2M4XmVKopiNWdoHYe5TtPp+y18i6lQCjeYduAMr0RhmX+mj4C6o7IcfVzpmn7qk0qTTJK1AIMRLM+K4X2vkRPIdi1VY4dj7qbgCdhOi/1FRm2EO0KMBjBRc74RqTLyIATsIaLj1cKLn1MpxwnQf6jIV5mRsM0WkzDEQ0XHqKpbYToP8AUZCvPZR8B2HiWf8AYIeJRR1Hylo8DLJ7vtfIlPyHY/kZTtBGzQb3Hi6ykbw9ZTjzLOczkmP5GVf0ifLpjJELKpNSWUjeHrJvzLOMxLmNaHJ2nVNR1xloqMp2mJeji0X9Eo49LaU+oD85SINUkRxWx+Mq5sfn2UfAdtVTSfETVH6mrP1KlZqm0opkW+18iU/IdnRZ2Mp0VS88XUqWcc7yktRT8jtEqKKpj2YlsRLQQqhIQxpjLKSuvmYlIPiQZSWovkZTqKHIjWU47Q0+m43lWt0zhLRiyYjiL+iUgTS2lJKgPyMTDrHCOlUnYyqjKfl2Uf1iL1Mfl2MoYYGNZT/jNM8p0Am/Za+RAcDjOe+qcFN5dj7uzsPd2dvuFiebi7Hk3Z2Hu4knmZjxMx4gYjiZmPuAkcTO33CSeeyj4D8lr5F1O0FNpqlmqSalJqkmqWG1D0JUrGp/TR8BcTh+K1A7H+s0c6D7hBHbhKQwQA3PTznfi6o+TD/XFQef/Df/xABAEAABAwEDBwkGBAYCAwAAAAABAAIDERIzkRAhMTJBUXIEEyAiMGFxkrEjQlJigcE0UGCCFEBDc6GigNGDkOH/2gAIAQEABj8C/wCZxJ0BHmDzbNmbOr44BXxwCvjgFfHAK+OAV8cAr44BXxwCvjgFfHAK+OAV8cAr44BXxwCvjgFfHAK+OAV8cAr44BXxwCvjgFfHAK+OAV8cAr44BXxwCvjgFfHAK+OAV8cAr44BXxwCvjgFfHAK+OAV8cAr44BXxwCvjgFfHAK+OAV8cAr44BXxwCvjgFfHAK+OAV8cAr44BXxwCvjgFfHAK+OAV8cAr44BXxwCvjgFfHAK+OAV8cAr44BXxwCvjgFfHAK+OAVedr3EISAUOgjv/mJuA+n6Ek4/t2dTmCswDnDv2LNJYHyhfiJMVneHj5grM45p2/Ys3Tm4D6dhquwV2/yq5k8pVxL5CriXyq4l8hWeGTylZ2OH0/NZOP7djzGbmrVmlEXPNGjSVZZVsI2b+kGSVdD6IOaag9KbgPp0KMzNGlxXWbzjt7l1YmDwasw7HO0H6LrQR+VE8nPNu3aQnMkFHDT+Yycf26DpX1o3ciWZnDS09C3zbrFu1a2UQ5Mw5tL0A0Ek7ArqniVoZ5l/T8y9zzK6r4FUOYo8mee9nSm4D6dBkY07fHt2coGnVP5jJx/boFjxVp0hNMILmnV7xuymSV1lg2qxVzO9wzJ8h941Usp0tFBkqegx499udRyD3T0puA+mWBvzj+Qm7hX8xk4/t2EcUMocQ6pAQyco8Rk5R/bd6INPtI/hKbIGuaDscMnJ/A5Ij8o6M3AfTLD9fTpzMPXitaNyrE7PtadI7CcfIeh7JvV+I6Fnnbgqxlkn+FZkaWu3FMkErAHCuhPiJqWmlcglbI0A7CFzbnBxpXMmytkaAdlFfMwWaaNe1b1fiGjJWNvU+I6Fnnb5VVlmTwRa9pa4bCqAVKq+zGPm0rqztJ8F7VnV+IaE2IEAu2lXzMFfMwVW2ZOFUIoU8NeG2d6a9z2uqaZk5jXBtBXOr5mCvmYKrbMg+XJzjZGtFaZ1fMwV8zBPkMrCGiujsJOP7dJ0khoxucogVZDsb/30OUDwySxt0uaQg5/tJN50DLAO4qgTG7hTozcB9MsP19OnPxIOYSHDaEGcrFR8YQfG4ObvHSm4D6ZWt3mibGwUa1EMhFkbznVJQYj36E4tPUb1Wrk/AFPxZI/E+q/aFF9fVGJjGEU2polibZPwpzHirXZimRb3WUGtFGtGgLqwiz3lUkrE7v0J7/d0N8EJZB7Z3+qsUtyfCNi9pB1e4p01Q5miz37lGQKacyklAqWjQrlmKLbNiQZ6JnKGjPWy5T+AUXH9lJwLnGAE2qZ1dRoSgU2EKrffbaK/cUI2xtdVtc5VyzFPjMTRaFNPYScf26TOTNOYdZ3RJfduFCs08f1NFfR+YK+j8yv4vOFnnZ9M6tt1AKNTPhZ1j0puA+mWH6+nTn4so/hi60dg2pp5QwMk3A9GbgPplBGkIOYet7zdyLqFjztaiYXCUbtBVDmK5PwBT8WSPxPqv2hRfX1RlMrm5tFEHOe59NiPNxuJOa3TME140tNUHxHxG5FwBjcfhRdERK3u0qFjtrwCnO+EVRe41cc5yw/X0U/DkMzmlrA2grtTG7XPU/gFFx/ZScC5tzi3PVX78FZiY9wbsGclOkeKbKbl+4oSOkc2gpmV8/BNe17nVdTP2EnH9ulyiu+nZhrBVx0BUN47O49KbgPplh+vp05+LIHP9nHvOkqkTc+1209KbgPplAGkqj7TH7CF1nCQfMucAs56EKORvvjOoKfDRS10O6wyRB2k507uaAovr6osiko2g2KpeHDcWpri3qyNrQp8EefrUaqG1G8bl1yJB8yErRTuUUzdtHnFb2uCdG/Z/nJzlk83WlpQ/X0RLyA3eVQTRV4gnOoXUFaBW3ZmjVbuU/gFFx/ZScCtwusutAK9/wBQn86BaZtG1RzNFC7M5fuKayIts2a5wtZnlQZMRQGuYdhJx/ZFzjRozlaX+VOMJObTXLyji6PcqjR0KQsJ79itHry/Fu6c3AfTLB49Ofmm5rWdx0IOd7STednYT8BysknBshe5LGfqqgPb3BysxgMYF7O7ZmHeuYmNGk9U7kBM0OGxWrBcfmKtPOfY3enSP1nGqi+vqudkL7XcVU23dxKtSENYE7lHKAaEmncs4ZKzFVo8d1pWW0ZG1FzdRvVahyflBoBqu+yAlYHDYVWwXdxKLJ7NilLG9R2dXPRT8OQON43M5c6wezk/wVP4BRcf2UnAubkJpWuZa0uKsxCg2pscRq1m3vX7ig+W1WlMxX9TzJ7hbqATrdhJx/ZFrhVpzFaH+ZEQildOXlHF0uVBwBFRmKu7PCVrS4q7tcRqqNAA7uwm4D6ZYD84/kJz8tOhWN7mnuKvzgF7WVzhuy0ilc0blnnP0AVp7i47zkDI5S1o2K/cr9yrI9zj3nJWJ7mHuKvzgF7aRzvHL7KVzRuVDOfoKKriSd5QfG6y4bUWSTOLTpGQmF5ZXSiyWUubuRMLy2ulATSFwCLoXlpOZX7lfuVJZXuG6uSxFKWt3K/cr9yIM7qHsJOP7dFz5DRrc5KllAoHGvSfDJm52lD39pNwH0ygjSmSN94V7dkI0vNfp+Yycf26PMwwTcy3bYPWK/DTeQr8NN5Cvw03kK/DTeQr8NN5Cvw03kK/DT+QqxyqORkrNrm0tdnNwH06HNy1MJ/wqxPa4d3amrw53wtzoyyfQbvzGTj+3YSsEzgytW5ti/EOwClk5S8ubWja9tNwH06NQaFdWeTFX3+oWu3yrWb5VpZ5VpZ5Vrt8qvB5Qr3/AFCvzgFfvXtJHu8T+ShxBodB7aTj+3RaJpA0u0Vy2Zm6NBGkKr3yOG5BkbQ1o0AdtNwH0/NuTR8pbWKVz6u2s71Q52nO1w0OHaycf26D5SK02Iyzk2PeP2CoMvM843nfh7dzToIoi17DTY4DMVquwWq7BarsFquwWq7BarsFquwWq7BarsFquwWq7BarsFquwWq7BarsFquwWq7BarsFquwWq7BarsFquwWq7BarsFquwWq7BarsFquwWq7BarsFquwWq7BarsFquwWq7BarsFquwWq7BarsFquwWq7BarsFquwWq7BarsFquwWq7BarsFquwWq7BarsFquwXIAdPXP+V/Dcrz8nOg7YzvVmlpulrm6CFquwWq7BarsFquwWq7BarsFquwWq7BarsFquwVGxuJ8FZfruNo9AtcAQdhVljQ1u4dD/AMv6F5OPlOQRTmvJz/qgQag/yn8VV1rTTZX9CwcB9cohnNYDoPwKozj9MRf2/v0BDyg1g2H4P/iqM4/S7f7Y9TlbMJ2gHZZ0Lrcpd9GrmhK+Ruy1s/S9BnNgIS8tHhH/ANrnGijJRX6qTk50P6zfH9MnlJbWUilTsyOIHXj64UczdLDVNe3VcKj9NUKfakayG11dpomQtLi1opn/APSR/8QALRAAAQIDBgYCAwEBAQAAAAAAAQARITHwEEFRYcHxIDBxgZGhsdFQYOFAgJD/2gAIAQEAAT8h/wCzhlbAclMshNwS6uqK0VFaKitFRWiorRUVoqK0VFaKitFRWiorRUVoqK0VFaKitFRWiorRUVoqK0VFaKitFRWiorRUVoqK0VFaKitFRWiorRUVoqK0VFaKitFRWiorRUVoqK0VFaKitFRWiorRUVoqK0VFaKitFRWiorRUVoqK0VFaKitFRWiorRUVoqK0VFaKitFRWiorRUVoqK0VFaKitFRWiorRAhM4Fio8yyX+hXcX6JT5OWZFAIkm5ESz+n+0agYAAp5M90QAo8HJic/pAASBBiCOOu4uMEkCeyBpG7k9LzkDysYAHEPNREUBlj1V7mCRDTh+Up8nJHF8JrnQdgrkuCMTEofKeIvBJiL84+kKkE4IvHFXcXASMZbD+oMdxnRCG6WBSQHQcn3dOQ2NzYCjgrki7qEfqewH8jT5OARxClMU/Ga04OAsJAhXGKOYUNnYDVQszADkoOMHLCB7lKv8ICQPohoYeWUZBIIEG5HMcxvY188VdxWgEkARJQHoA543ueEjYD1xd+Rp8nAN2KxL0eNsgfOZoSsFumSU8tANiU98qB0cLKefxYAhAAJk8AqW8gg7Ilxk9r0C4ccNdxWiPSJD2j/gADkexf8AI0+TjIASSwCncfqJYyXtWVnA2VDEnYM3suhWGCkGys5WEPTJ/XDXcVov1y9uMGrc2fQVFjHAdjkZ9fHwEDLQMEFKKcjKMMiAu9o4H0wMhDRiCUHQDUKL7CbcIcXFlC0BwYp67sRXFluZMog5ghRKLgCvYhyEj7f0pETkSJiiwJj7UytAGKGyiQAAclAzyuJ/AIDoITCiZu48k6/TsB1uZbmRG3C4o+CjMoECDMJhNwYHd0ImQ4EXIwejwzW5luJEQgscfBRDFjNRtAYBuW5luZEGjMAotyKfJxCXiOFF6BMEzzxWEwGzMjn82MgAdeTkKTPuPALcxA3sIwAOTALIH8Bw13FbXZuOuyUUigIxC6KUx7hFRqROTc2cCLyKHCAYBPacwecgQ43xeSC8Esvz8qh4KuyFlZxKu6qmzIFFgXc8UOFMxJFxmglAGCowQG7uoRNBcBOE3g66CBldfkmHMPiU6FJIXjcwUcmON3FSE8seUbJOeInECEKBJMBIQMEAk9OvW7UZfAue4IxCAQBwF+BVGxKosyq8wh1rjZUH4+9G0mScAQgEIDABi5Gik1SQ1AB5BeVu1Amx3g4PyKfJxFQ5dc3CseBoxEEMEmCbsCn1WV9g2202sIifkbvSAURDKM2xRDCH9fL3xV3FbXZuOuyti5Jmn8UTrpvORcWAyOEPvBmEipiAnmcwg5CiQwCAsQblQ8FXZCys4lXdVTZkcEEAwDJD35uDAAPVCcFs+TxUlej2QsJ8pYFRmBEyk9EDgLgbxTMoCB6rNt8AnpRcxNtJmVdmLAywhAZxRmyjdgVRsSqLMqvMJuVa8B0HY+CpxLMuk7YyYQuUmqSPioMBV62UjjyFAYHkU+TiOZcHwA4OkGaEZcR3prAvQy0YCxw7cVdxW+38nHXZWR9nuPAE12CmR7nJuMMuRgBemUBTE+hTEMBjHyhI8g7XFBAAJ+oi/wBoRuD4QROGSTENYL1gFpzLoAwvrw+qpsyZPZmaUEXvAR8KBuBYREkUaJQ3WSKbuiTP0KYBgcI+QjGnwJXEILzQEYiJAcNQBQXyCUDguNnhcoOqTMgNFMjAIWKEWAERTdleT0TSGjYBUbEqizKrzCDpxjAwiqv0ITuIOBgB2Q2jlq8iRUmqSFjEMzFytso7C0QY8inyJvcSTAWSNhPYAYi2vyHCSCaHf0j8Ga4yB1KcyCiNzIOOu4rS7uPR4wT0cB3TOW7uHQOQTg1i0npHDRY3FfxgTVB0HtTXDJJ9koOc4H/Yp4j8LIsCpjVFeOhQQIAuA4PCPwoYUyRTHIJUWZGYMgBCAh2Qs1jJ+kRCqwGgCbmFDEXmT9kMvGRkTcB4IEBgH3mA6lSy7qDFSVcPJsS70LA6FPrmmyAwBsCI9ARmUSHNEuQGKrswhAuIFAJfk8e6vFTw7gVGxKpsyq8wm5rUViti/SJL/kS5OZKAcfuMjkUuqSgF9yQsCELZ2cinyIO4Fg3ixhRLrkS5NtfkOIndugcXo88fOHpRtD9I08fO9JIHEcgDAciu4rQl5an+DPb2Q4MyZNJsDuE0QVsbDDxb1AaceCmICMh8BERBmRzZID0DQWxj6RMGPrWfM3rO1SJMAdz6lI3wKHi0M2fDjwmoIyPgEanuZHKOGkgQrDsRo2F10LL0Xh5kAi62Fl6MF5wC00MgziMFsY+lsY+lmQhB4siFZ2MtjH0tjH0i1gGIYcinycIuozi5EHNYHDii1CwbHh75ldxWmhgC4UuYPQb+eMonQyf38jT5OGOP4h8FJUNoqG0VDaKhtFQ2iobRAZcANVykYgTgDHry67i4CGAVeEzxXXHTmEtNNNuRXfxTnDAEgw/I0+TkHipmyaVyrjRNdebAddOdXcXCNFAvBZDWZYF/ysZdfoQxLtWx7NFM2GicJibD0+hEmh9Sn/bLL2q5/Chkn4EC3Op8nDI6YtBLo4F0CmwffID9UPwbAQHOruL8tB2gJgIYPKBTgXy4HNp8nAAq3eImCYmJ6qAAgAQtI/OEeeGe0XdEqXTBG5FuRbkW5FuRbkW5FuRbkW5FuRbkW5FuRbkW5FuRbkW5FuRbkW5FuRbkW5FuRbkW5FuRbkW5FuRbkW5FuRbkW5FuRbkW5FuRbkW5FuRbkW5FuRbkW5FuRbkW5EQSIkuxFDxrh7BliE6DoMT3IhbkW5FuRbkW5FuRbkW5FuRbkQod5AGg25DhlwQobEDgoNGkgMOD436LO177FhihEDjx6IJYJwQYH/IT3xm9z9FOFaDEiuo+kJFBA4Iv/WDgYanAUiFKQSKCBwRf+ruDwtgtNiC4SQumr2uiNVAwTd9oa79XczQEATvTEfMz08IIApAuCB0T34HaT9fH6zAcwLiMLIhXpJ+lJ8PWLx4ReXAJkf1oBAODAhNSooItzomLahNz/wCJH//aAAwDAQACAAMAAAAQ8888888888888888888888888888888888888888888888888888888888888888888888888888888888888888888881zzzzzzzzzzzzzzzzzzzzzzzzzzzzzzzzy188888888888++++x+x+2+++++++++++++++++++++++++88887icN8188+6fP88888p++++++++++++++++++++++++88107z8du788+p888x88842/zw9/w0+/789wz35x2w++++888k4s5Nr988+q888UN/wDPVrS6vQl+uuTBej161qPrHfvvvPPFPASEmHfPPufPPHbfPOViUSkGmYimy0JYM6x81mN/vvrp/FPLs/NPPPPu/wDzzzzzz/71/wC+f+M8v+vcfs/dPu8e+++88sc88Y88888++5532/7tt+++++++++++++++++/++++++8868sU8888884wwwwwwwwwwwwwwwwwwwwwwwwwxFywwwwx88U878888888888888888888888888888888888cc088888888+8888888888888888888888888888888888U4o8888888888888888888888888888888888888888888kA888888888888888888888888888888888888888888888s8888888888888888888888888888888888888888888888888888888888888888888888888888888888888888888888888888888888888888888888888888888888888888888888888888888888/8QALBEBAAIAAwYHAAMAAwAAAAAAAQARITFhQVGRobHxECBxgcHR8DBA4VBggP/aAAgBAwEBPxD/AK7RCGZcvmdzY7mx3NjubHc2O5sdzY7mx3NjubHc2O5sdzY7mx3NjubHc2O5sdzY7mx3NjubHc2O5sdzY7mx3NjubHc2O5sdzY7mwiWcdg4aSn+TnDo+N1E80iWzxJo+JMgH3/t8x8HkrdcZXuPmZJRm7vtgwAt+L/D2JbkPRLfATi9H4YiNPjzh0fBwoYFYLqueO7KY+l8qdqeikrAMi5j67b12/wBnmPg8G7RxS4IbP3w+CNJu4tsOeEC6qjq8ItgPZ+4dh/srcFGkvZvtdkMHQL9zPjg+t+POHRig7E5PkurENmWJeO7yIfsTmeDUAbWUAL1s5pUMmZDnfCA1sSz0ZZxusx2ZwiIGnBzPaU8u5k+11cXgDayjS9bOaBAJRwlfl6W8wSJApLsxKM8ppuD9RsGm76zlleljuv0ylYW4p+oQNeuHWpu9C+003B+o+rjBz+fJzHweQMkCdZi/bJAy4J1lloduQfb5wZ+zVC3q/h484dGfvbnyETfwECUNx+Ye2GkRWjW5s4nhzp18DmU3ejhV86hZjrrn648VTNDKOE/Q3E5ySsLvvuPo94Y9Lm4hezPd2izFRd+uvrshcDrr1bXvMINGOoYB77YS3ybTHSmABnaNhTR/ss1CmblRuYluLBLurMT2z09p00pWu9K0mN0OoVrftFmsIeD0yhnZTHDN7S6oNrmevk5j4PKwxwUbdH9tjHED0H6htlwPuKGUZtUG2CibI13vu8q8ecOjDY/qnyJ7sRnkZ7uukXt0WXvv9+HiLHU6+FxlMXXcbMNo53Datm4CtQaf2MOBcRNtY4eoVhpK/wCgwqmsDbhrKillaq3hoTEKOGrx0MqJ32FXuKM2W70W37VbH0j8qO6it1DnfeHwXEG2tnv+ZSqrHOgp5lRcJKHYlPM27IkRDWBoPzKWRwHqHqYjunTSYFnEVeHpF9GxSCm/LPDCptJBnnWNcpcuJi0cfWbigKrPyaAzcCO/c6uq1v28gOkfsd5EgYd+I4OXFgVhPp9seDdsM31fjr5OcOjL02E4xCdJg+dSNx9jF5HgDRZKlTvAPTwsnO9F9IAKIuSXR9RGyWgHSG0WS8c3gHp4WFt5C8ajYTDKtlQOkNAOkpUd6i+OcVsOqi+OcumN6CylM6A+JWkNyX1nbH1LUG24Dp5OY+D+TnDo+CK954WPthj7wWc4nwzvj9TX4n6h/qv1Da8dhjgHoL9S6dXa/G7+kI5efmPg8LdF3GP8QZAqQ35zVmrNWas1ZqzVmrNWas1ZqzVmrNWas1ZqzVmrNWas1ZqzVmrMWZ3G7HM+TbDoEcpqzVmrNWJlojh2nB5eA7ETQaa/tkzjwYvFbz4/47EQUp1HZ/4b/8QAKhEBAAIABQIGAwADAQAAAAAAAQARITFhodEQQSBRcYGRsTBA8FBggMH/2gAIAQIBAT8Q/wBdGHvmm7czTduZpu3M03bmabtzNN25mm7czTduZpu3M03bmabtzNN25mm7czTduZpu3M03bmabtzNN25mm7czTduZpu3M03bmabtzNN25mm7czTduZpu3M03bmabtzNN25mm7czTduYeS/3vCLIf0BbymlNCIZn7+qfM1Lg5+Uczr0i1i+Y17niARNsAZHhc4QbCk/bwGl93QK25Nxui8/qAZrPWlp4lzt4ALDU8DAuJ4BQ0ejtFsTLhRDEgVTBLMGAAwMCvAjtFsGtim6gVkJ2mPRJ0ag1RhKI2QK2F6beibo1+DG0E+x9Q2gmMHtPrfcGK9PAN0ffgweszv4bxUvpndCIc4+yP73j5kZvGfR+oj76j66GOBd4k7H97wc1y0KiYAZJ9wGOsIoZszP7vAl34wsVhMpjGIdsPaLDWJ+HdgeZxDvjoBLlEwxzfAN0eASGBbjMRMXz653QXSkZoIQjJiRCmCVxP8AyC7pw+oCuFB6JvD0iDjE7Jl/vmZlKghLYkcQXEJ9UzP7vGBnxlvwPW4k2WKXC9YEXa+C2B5TyyvBQmyGbXzBnGo9bF8IqPJBBZ47dp0FMSAUr56AKFXrFuAFC+ZgSWCjZAKR9+gChV6y0bmKq4CUWpgYsINSSJKV8xC1U13zM1X+lgVYsh3hnqT1poM0X+953ZMKcD9Kq/DgFr+J1BhKZTKZTKZTKZTKZTKZTKZTKZTKZTKZTKZTKZTKZTCcYAIpSYymUymUyz2i5w6KKsHbXo+AZtf46ppdf8N//8QALRABAAECAwgCAgIDAQEAAAAAAREAITFBURBhcYGRocHwIDCx0VBgQOHxgJD/2gAIAQEAAT8Q/wDOk1NTU1NTU1NTU1NTU1NTU1NTU1NTU1NTU1NTU1NTU1NTU1NTU1NTU1NTU1NTU1NTU1NTU1NTU1NTU1NTU1NTU1P+UVBhmABK1ZWYABqg3dDv/QqFChQoUKFChQoUKFChQoUKFChQoUKFChQoUKFChQoUKFChQoUKFChQoUKFChQoUKFChQoUKFChQoADJuvxIB71cLKfMUSDoiJx/wAnY/0PuX1onRUoAZrlT+7ZTE7nHkg30tkmnObL3rXTijpRWFN55zIe9L+si8OOPNbfQZGEJEcx+jY/HmV23k0apho3iiBInCLvalgQuR+ivRPFBFI++FIBNPTCpqwXYEdq7MW8UigK0bfyncvoXCj5lYTCG8meVPBizAGK1Yfs2GHqGBx+UGUy38LrmyvRjHPyISJ89jtsBnEmXIM9zrFO5jFCTuMEdaKDzDwRQXQg+iK7bl+RT4VcnUAGgTcVZGjPUF4VpZnU+TMc/wCR7l8E/SFCUUAOaUQUwAu4NsR12uFCR8YbAvk3RjNJaBQOJu/DFxNKRKUoRoBjUYaat0maAl3RPgoYGRuVST9c1CkCw1voM0r20NFGIjg00kAUWBj43zbHYTaiAM2j1AxZ911twD7wtk9MyVvBE5n8j3L4KXDkWDUfvqUM3j9WSmoUhi5psH3k9qBirkFBVKQlHEWOcU4i33kLY5EHKiVqVMU1G+Ac9gYGlEAarQyW2kXc8DJp6PRSwQu75WcySiBJEkflsdgMyQail+KMPvQ5KO4S/Aaf5DuXzRLClVgDWlJuVYJAwuhcJzoSW5+fjo4SZwiVJ65wubqKukij5ZmiWdnqtalMDLx3p+Wx2CVy6Sg+LhRZmQeCg/5MnCoSQT1C0byT6JsJ8jWW2LiWWnaTm7iaUHOYZ1U/FAhgmcvKzvWNsM1/zfT5h6UCYakKwChYNh47DcqkEkxHCnd/rAiVr8KsQVKJJiOGwMzcog3W9QR1LknScR4hsNjpldWYZ8g0uWiUHWShQ8mX07O9KySEw5NMuuTI0AxqNnJEeA5pS1glhvUX8U9BNged4MODFW86AUJMBw2hhxg9Kk6Qnk0qy0OEMRHBpLQqtcJaOFRqVFgyZvwqUgwpEgRbjtDLMacolvAF5TSICBhEhGib5NpmF7cdoYY6hSUCYPo7l8l2S8iPK4Bm1hFWdHUMW7A77N0SOwHJOuP12LIw7gICd16gCXxdHvdl4bScwLgh4aTwsAzWxUcYdLDx8tjs7r5Zwru/4UiVJQjclSQYBaeFjxL7ms/lZHDc7vl7HVWRw2Iwg90QPNCraY0zd7itIKJiwDEsEHC9WBuDX+C5zI30I69lIBuOMuUV67T8PNmPW7ioN3fjwnJoc5TgVixmY0pxTQpkaHJ7OjGelHiikwDAKmOXEib0IGrcwBYrw4cwq4E/XAebPNQ9BzMqlhopi8sqhiDlAA4aXCFqEuTddLgIe1A5RQpxjM+0XwqWLccKwJvBhUa2FULgxONXPb6U8JtF9RJbBSRMypxzsReK28hJ4abIneaO6VIHd1WI3twqGkGcJ80ipAs54HMwedNUbZMYecOc7FpFbWAoRAbq9L8Uus8wgRIR9HcvkoyBgOJjcCXk0+E+3ij6SYysZhzi9tGjkekwK6QaEw9jfXuPmmZIRj/0qJME3NylQieWlBVRkqr0qVmhHC6znDkPz2OzuvlnCu7/AIbbGrSx3HP4o0AYVN+53Sxr8fY6qyOGx/oNtEZKExIld+E0nBzpnv2QaySL0q9GiBY3DI8nlSUxBQoxEya9dp+HmzHrdxUhTO0EIxaEeFggyWXTdWuksDaXsGtZ06Oahv0p+pBM78HnBpb3KQIzXbpFSo1WwuOzyZ3UMSFhlGT80UXJB6yMdqa0m3FGV2SxEsYxtEghnBpU8EJQwnEAb8KQgkBuQvc67IneaO6VGyGBlIJEPGoSQZgNFzGicV1ylWkvsy92FvxneuxYnTS4IKzenpvihh9QgCk24fR3L4rg0nkom4EfC4ukPNIAqRwTZBoVBobRIQJlTgFTNMYBZYOmDjLn89jsYSMWflOFd3/DZEm6YI9bsHGoV0jqV4EHy9jqrI4bFymESpYAoxeqqQ1PE4UqTNbDhh6zSkiJTGDZzIRmjcsEzIS3wDlTXiDuNzuNPnEgrIC3BE5bHyxmQg47J1pLxYBk/oFdxUjXwY0l7otC6TZoNJAlH7Qmkula40Xha4iI9EomV7qxqGJwpY12YMeU9Zo1s1+V0JOfGhFlEImMuYHOpKC5I2FlyaUOactku5P1sEYiC5w5iddggJZkoG9bUBzyEpwAnGobtohjJgOdQrwEZMS7mub+tkTvNHdKp2BmMEiETIoJGLGTUKqNhAMWybqt6jCIg8SJORsWUMtAcgbvA2cD5+QOxMTcv0dypH82OAErSawm8/3pIgSWZgxow9Njg/IhCXA04VNigyhYdH4Dgkw5zJY/NWbDIQDiORvxd2H0bHZOGL3G8qMD4uFMujDJMxzO4lqBS6xF0ziy8PoHAR+XRgbEEOocHcMwxtfCkLJfDCTw9Gr5MmV+Be9DJgWnOaM97SZJcGJLI7mwbihxln4RimQtxyZ1o4psVJMwuealsqWb2POafeanbsBkauBUw42YSuBuMK7qo4vaQAQWVTWsTFnxgPeoAARAsFs06BUZykQtEMULLZ3rF2u0G8TB4Q1fSM/vhe9PCArAGKpi72p1YKJCCrDeryijV3H2ZFyjJwizlRIkTJEmYXOtCYEyLdBE86YZ8VBof5tGM0gHNgQQubGdKgJNEGRLI0AlgLOJbkX4zpWBJsBbH3A4nMy2RO+0d0qNA80pCYxG16JCVpgHnvQxiN3IqUW5sqgRZgGOq7NrDTi2grhG9r3f6ViRSJEiTLdWnz7lS0pOBIQnSlVQtw7VC/JPEwJciXrscH5kH2VAS2MaTlPii/kdqxlucKY+YcwPTdRGxgQG4Pp2OxjYBruYeaPkAYAZ/SbDEp4s8vhvN3m8YxqVWaudWVXo5NnPgg7bR55gYvCQp42Zo9QaxrVmnN2S67iQky4mq7ETKDdIPUK36yzOE4bJBpitPjGPOpBJql6sqUIUyWp3Cx02wefAd6k7VvEY11BrFraacVqeVdpJJDjuajqICA5GwYIFjYYSI09cRgijI4UMBhCMDDEdaj7J0BCJsGTUQZpishi45htRIk7fiufJbZcwqKiXFubUSJSHHXRITD6O5fFe83AAe4Z0gc60pYE74Pk3l4TkA+OB1Iz+3Y7Hzgk0Rkp1hjBoWcmTl94+Imm/ajo/yPcvipWcHcM9Ry1b6fP165cuXo8IMiCjQwGjAMwqBoTnnb69jtviAjKsQZjmczOSi0TbU4mJzPrmgCoAurTENWRXRi3M0mgRoWeA9uq/yPcvoYW2BDjQW4LnLZIW74RJJWQE4jk/fsfhgMIUjmUMBGCicpV5xlA48V+mgkZ91H/C/uliA7w/unKCmCRbz9FRtsKBzA4GhcGN1+IVIQTiC9F/hb2AhiUMOcfd3L4rGehDLvtgb21CIIyOxRcqdd47jcyUNa0hHcQT0ihWCigbj79j/KwSPDtZqQlJma4JsuNSzBvyZfb3L4MPhgFpAJciW7Ub1UbEMNK3Q3tyUhANA2gWTJNwmNJi8Y/fPcQ1jAR/NA7UEA5In4xK9I8V6R4r0jxXpHivSPFekeK9I8V6R4r0jxXpHivSPFekeK9I8V6R4r0jxXpHivSPFekeK9I8V6R4r0jxXpHivSPFekeK9I8V6R4r0jxXpHivSPFekeK9I8V6R4r0jxXpHivSPFekeK9I8V6R4r0jxXpHivSPFekeK9I8V6R4r0jxXpHivSPFekeK9I8V6R4r0jxXpHirnJCIif1UCMVaU+o46ilQEwexRr2r0jxXpHivSPFekeK9I8V6R4r0jxXpHivSPFekeKeZMLF7VHEPCyNAJbgJ3z8DpFCAaI1gOlMORtcGsD1sUYf0STJIHInZfSybrZN/MyxM6ClifA3Ecz/EPqEbawRknfE49P6LusN1/wBNsFyiXUcTXWZYmZQnRJSBuI5n9Ynj4LPH9Pwg/ia6n86jLEzKF6ZOQNxHM/q8GKxY0lP1tMnhUwimBo8Eo0O6/wAoqxvyAsZwDFeHDL+rwqoH5SsAC63oYtYvQaOt6ddKhIjgghj0lzayQyLkwTjB/rIBu4eARbkubjsu+S2XQW80vIq8TBDI/Ik50LEhMwkej/WiQCUYI4lAExo3ubLFlrrhhUOJTlJW6BrBu/8AiR//2Q==;" vertex="1" parent="1">
          <mxGeometry x="379" y="494.99999999999994" width="197" height="73.07" as="geometry" />
        </mxCell>
        <mxCell id="cM6TXBeVg3W-jRQIAjTv-37" value="youtube.com/@petrusdemelodev" style="text;html=1;align=center;verticalAlign=middle;resizable=0;points=[];autosize=1;strokeColor=none;fillColor=none;fontSize=15;fontStyle=1" vertex="1" parent="1">
          <mxGeometry x="322" y="470" width="254" height="30" as="geometry" />
        </mxCell>
        <mxCell id="cM6TXBeVg3W-jRQIAjTv-41" style="edgeStyle=orthogonalEdgeStyle;rounded=0;orthogonalLoop=1;jettySize=auto;html=1;entryX=0;entryY=0.5;entryDx=0;entryDy=0;" edge="1" parent="1" source="cM6TXBeVg3W-jRQIAjTv-38" target="cM6TXBeVg3W-jRQIAjTv-39">
          <mxGeometry relative="1" as="geometry" />
        </mxCell>
        <mxCell id="cM6TXBeVg3W-jRQIAjTv-38" value="Controler" style="rounded=0;whiteSpace=wrap;html=1;" vertex="1" parent="1">
          <mxGeometry x="933" y="402" width="120" height="76" as="geometry" />
        </mxCell>
        <mxCell id="cM6TXBeVg3W-jRQIAjTv-42" style="edgeStyle=orthogonalEdgeStyle;rounded=0;orthogonalLoop=1;jettySize=auto;html=1;" edge="1" parent="1" source="cM6TXBeVg3W-jRQIAjTv-39" target="cM6TXBeVg3W-jRQIAjTv-40">
          <mxGeometry relative="1" as="geometry" />
        </mxCell>
        <mxCell id="cM6TXBeVg3W-jRQIAjTv-45" style="edgeStyle=orthogonalEdgeStyle;rounded=0;orthogonalLoop=1;jettySize=auto;html=1;entryX=0;entryY=0.5;entryDx=0;entryDy=0;" edge="1" parent="1" source="cM6TXBeVg3W-jRQIAjTv-39" target="cM6TXBeVg3W-jRQIAjTv-44">
          <mxGeometry relative="1" as="geometry" />
        </mxCell>
        <mxCell id="cM6TXBeVg3W-jRQIAjTv-39" value="Services" style="rounded=0;whiteSpace=wrap;html=1;" vertex="1" parent="1">
          <mxGeometry x="1112" y="402" width="120" height="76" as="geometry" />
        </mxCell>
        <mxCell id="cM6TXBeVg3W-jRQIAjTv-40" value="Repository" style="rounded=0;whiteSpace=wrap;html=1;" vertex="1" parent="1">
          <mxGeometry x="1279" y="402" width="120" height="76" as="geometry" />
        </mxCell>
        <mxCell id="cM6TXBeVg3W-jRQIAjTv-46" style="edgeStyle=orthogonalEdgeStyle;rounded=0;orthogonalLoop=1;jettySize=auto;html=1;" edge="1" parent="1" source="cM6TXBeVg3W-jRQIAjTv-44" target="cM6TXBeVg3W-jRQIAjTv-40">
          <mxGeometry relative="1" as="geometry">
            <Array as="points">
              <mxPoint x="1339" y="589" />
            </Array>
          </mxGeometry>
        </mxCell>
        <mxCell id="cM6TXBeVg3W-jRQIAjTv-44" value="Domain/Entity" style="ellipse;whiteSpace=wrap;html=1;" vertex="1" parent="1">
          <mxGeometry x="1196" y="547" width="120" height="80" as="geometry" />
        </mxCell>
        <mxCell id="cM6TXBeVg3W-jRQIAjTv-47" value="IAM Role" style="rounded=0;whiteSpace=wrap;html=1;" vertex="1" parent="1">
          <mxGeometry x="923" y="-53" width="120" height="60" as="geometry" />
        </mxCell>
        <mxCell id="cM6TXBeVg3W-jRQIAjTv-49" style="edgeStyle=orthogonalEdgeStyle;rounded=0;orthogonalLoop=1;jettySize=auto;html=1;entryX=1;entryY=0.5;entryDx=0;entryDy=0;" edge="1" parent="1" source="cM6TXBeVg3W-jRQIAjTv-48" target="cM6TXBeVg3W-jRQIAjTv-47">
          <mxGeometry relative="1" as="geometry" />
        </mxCell>
        <mxCell id="cM6TXBeVg3W-jRQIAjTv-48" value="Trusted Policy&lt;br&gt;(Quem Pode Assumir)" style="rounded=0;whiteSpace=wrap;html=1;" vertex="1" parent="1">
          <mxGeometry x="1134" y="-123" width="166" height="60" as="geometry" />
        </mxCell>
        <mxCell id="cM6TXBeVg3W-jRQIAjTv-51" style="edgeStyle=orthogonalEdgeStyle;rounded=0;orthogonalLoop=1;jettySize=auto;html=1;entryX=1;entryY=0.5;entryDx=0;entryDy=0;" edge="1" parent="1" source="cM6TXBeVg3W-jRQIAjTv-50" target="cM6TXBeVg3W-jRQIAjTv-47">
          <mxGeometry relative="1" as="geometry" />
        </mxCell>
        <mxCell id="cM6TXBeVg3W-jRQIAjTv-50" value="Permissions Policy&lt;br&gt;(O que essa Role Pode Fazer)" style="rounded=0;whiteSpace=wrap;html=1;" vertex="1" parent="1">
          <mxGeometry x="1134" y="-6" width="166" height="60" as="geometry" />
        </mxCell>
      </root>
    </mxGraphModel>
  </diagram>
</mxfile>
